<?xml version="1.0" encoding="UTF-8"?>
<svg width="169px" height="165px" viewBox="0 0 169 165" version="1.1" xmlns="http://www.w3.org/2000/svg" xmlns:xlink="http://www.w3.org/1999/xlink">
    <!-- Generator: Sketch 52 (66869) - http://www.bohemiancoding.com/sketch -->
    <title>k6 logo2</title>
    <desc>Created with Sketch.</desc>
    <g id="Page-9" stroke="none" stroke-width="1" fill="none" fill-rule="evenodd">
        <g id="k6-logo2" fill="#7D64FF" fill-rule="nonzero">
            <path d="M169,164.432432 L0,164.432432 L56.2578414,44.0912477 L90.149656,69.0701515 L134.355307,0 L169,164.432432 Z M107.037414,138.43179 L107.401612,138.43179 C111.58449,138.440252 115.607174,136.819817 118.621351,133.912207 C121.750405,131.072041 123.511593,127.021044 123.456918,122.789676 C123.596767,118.709838 121.887744,114.785649 118.808041,112.115114 C116.241169,109.533396 112.780927,108.042261 109.146088,107.951452 L108.870645,107.951452 C108.396521,107.950452 107.924631,108.016561 107.468942,108.147822 L116.393318,94.8560141 L109.286871,89.8792567 L105.920337,94.8560141 L97.3234335,108.018954 C95.8452192,110.200505 94.6087831,112.124319 93.8467223,113.437545 C93.0522033,114.850798 92.368669,116.323938 91.802318,117.843601 C91.1576887,119.457642 90.8253247,121.179926 90.8229627,122.918544 C90.7830903,127.095286 92.5141011,131.092556 95.5850779,133.915275 C98.5599939,136.820318 102.550932,138.442567 106.703821,138.434858 L107.037414,138.43179 Z M69.2526621,124.118243 L79.1013039,138.082006 L89.6293734,138.082006 L78.042376,121.878395 L88.3378486,107.549507 L81.5099058,102.809007 L78.4739044,106.797777 L69.2404201,119.899352 L69.2404201,93.6072222 L60.0191779,86.0684474 L60.0191779,138.088142 L69.2404201,138.088142 L69.2404201,124.118243 L69.2526621,124.118243 Z M107.049656,129.708657 C103.304041,129.708657 100.26762,126.664499 100.26762,122.909339 C100.26762,119.154179 103.304041,116.11002 107.049656,116.11002 L107.110866,116.11002 C108.914987,116.113982 110.639789,116.853959 111.888283,118.159634 C113.20319,119.370547 113.945847,121.082565 113.932687,122.872519 C113.894116,126.657011 110.824723,129.705492 107.049656,129.708657 Z" id="Exclusion_1"></path>
        </g>
    </g>
</svg>